<?xml version="1.0" encoding="utf-8"?>
<svg version="1.1" xmlns:xlink="http://www.w3.org/1999/xlink" width="40px" height="21px" xmlns="http://www.w3.org/2000/svg">
  <g transform="matrix(1 0 0 1 -240 -16 )">
    <path d="M 29.35 21  L 10.65 21  C 4.79578165179359 21  0.0499999999999982 16.3100510735216  0.0499999999999982 10.5247058823529  C 0.0499999999999982 4.73936069118425  4.79578165179359 0.0494117647058813  10.65 0.0494117647058813  C 10.65 0.0494117647058813  10.65 0.0494117647058813  10.65 0  L 29.35 0  C 29.35 0.0494117647058813  29.35 0.0494117647058813  29.35 0.0494117647058813  C 35.2042183482064 0.0494117647058813  39.95 4.73936069118425  39.95 10.5247058823529  C 39.95 16.3100510735216  35.2042183482064 21  29.35 21  Z M 29.35 2.44588235294118  L 10.65 2.44588235294118  C 6.17649352637057 2.44588235294118  2.55 6.02971124958975  2.55 10.4505882352941  C 2.55 14.8714652209985  6.17649352637057 18.4552941176471  10.65 18.4552941176471  L 29.35 18.4552941176471  C 33.8235064736294 18.4552941176471  37.45 14.8714652209985  37.45 10.4505882352941  C 37.45 6.02971124958975  33.8235064736294 2.44588235294118  29.35 2.44588235294118  Z " fill-rule="nonzero" fill="#323333" stroke="none" transform="matrix(1 0 0 1 240 16 )" />
  </g>
</svg>