<?xml version="1.0" encoding="utf-8"?>
<svg version="1.1" xmlns:xlink="http://www.w3.org/1999/xlink" width="100px" height="30px" xmlns="http://www.w3.org/2000/svg">
  <g transform="matrix(1 0 0 1 -1452 -94 )">
    <path d="M 1453 99  A 4 4 0 0 1 1457 95 L 1547 95  A 4 4 0 0 1 1551 99 L 1551 119  A 4 4 0 0 1 1547 123 L 1457 123  A 4 4 0 0 1 1453 119 L 1453 99  Z " fill-rule="nonzero" fill="#333333" stroke="none" />
    <path d="M 1452.5 99  A 4.5 4.5 0 0 1 1457 94.5 L 1547 94.5  A 4.5 4.5 0 0 1 1551.5 99 L 1551.5 119  A 4.5 4.5 0 0 1 1547 123.5 L 1457 123.5  A 4.5 4.5 0 0 1 1452.5 119 L 1452.5 99  Z " stroke-width="1" stroke="#797979" fill="none" stroke-opacity="0.6" />
  </g>
</svg>