<?xml version="1.0" encoding="utf-8"?>
<svg version="1.1" xmlns:xlink="http://www.w3.org/1999/xlink" width="25px" height="25px" xmlns="http://www.w3.org/2000/svg">
  <g transform="matrix(1 0 0 1 -1704 -22 )">
    <path d="M 24.7854989955357 24.7850421595982  C 25.0234804966518 24.5464610770089  25.0234804966518 24.1595805245536  24.7854704520089 23.9209994140625  L 13.3619584542411 12.4698490234375  L 24.7252826729911 1.0790005859375  C 24.9632927176339 0.840390931919643  24.9632927176339 0.453538922991071  24.7252826729911 0.214957840401786  C 24.4872155133929 -0.0236518136160715  24.1013913783482 -0.0236518136160715  23.86332421875 0.214957840401786  L 12.4999714285714 11.6058062779018  L 1.13664720982143 0.214957840401786  C 0.898637165178571 -0.0236518136160715  0.512698828125 -0.0236518136160715  0.274688755580357 0.214957840401786  C 0.0367072544642859 0.453567494419643  0.0367072544642859 0.840419503348214  0.274688755580357 1.0790005859375  L 11.6380415457589 12.4698490234375  L 0.214501004464286 23.9209994140625  C -0.0234804966517859 24.1596090680804  -0.0234804966517859 24.5464610770089  0.214501004464286 24.7850421595982  C 0.333506026785714 24.9043041573661  0.489514536830357 24.9639779854911  0.645494503348214 24.9639779854911  C 0.801474469866072 24.9639779854911  0.957482979910715 24.9043041573661  1.07648800223214 24.7850421595982  L 12.5 13.3338917410714  L 23.9235119977679 24.7850421595982  C 24.0425455915179 24.9043041573661  24.1984969866071 24.9639779854911  24.3545054966518 24.9639779854911  C 24.5105140066964 24.9639779854911  24.6664368582589 24.9043041573661  24.7854989955357 24.7850421595982  Z " fill-rule="nonzero" fill="#000000" stroke="none" transform="matrix(1 0 0 1 1704 22 )" />
  </g>
</svg>