<?xml version="1.0" encoding="utf-8"?>
<svg version="1.1" xmlns:xlink="http://www.w3.org/1999/xlink" width="10px" height="6px" xmlns="http://www.w3.org/2000/svg">
  <g transform="matrix(1 0 0 1 -21 -30 )">
    <path d="M 10 4.81000000000001  C 9.74 3.06  8.94 1.62  7.63 0.449999999999999  C 7.46 0.300000000000001  7.36 0.309999999999999  7.2 0.460000000000001  C 6.81 0.82  6.41 1.16  6.02 1.52  C 5.85 1.68  5.72 1.68  5.55 1.54  C 5.23 1.29  4.9 1.06  4.58 0.800000000000001  C 4.43 0.68  4.33 0.690000000000001  4.19 0.82  C 3.98 1.03  3.76 1.22  3.54 1.42  C 3.23 1.71  3.23 1.71  2.94 1.42  C 2.66 1.14  2.4 0.830000000000002  2.09 0.590000000000003  C 1.95 0.480000000000004  1.61 0.370000000000005  1.53 0.440000000000005  C 1.19 0.750000000000004  0.909999999999999 1.13000000000001  0.609999999999999 1.49000000000001  C 0.629999999999999 1.53  0.659999999999999 1.56000000000001  0.68 1.6  C 1.2 1.6  1.71 1.61000000000001  2.23 1.6  C 2.46 1.6  2.57 1.68  2.62 1.92000000000001  C 2.88 3.19  3.18 4.46  3.44 5.73  C 3.45 5.78  3.46 5.82  3.48 5.86  C 3.71 5.89  3.94 5.91  4.17 5.93  C 4.19 5.19  4.56 4.69  5.29 4.49  C 5.58 4.41  5.91 4.45  6.22 4.42  C 6.33 4.41  6.51 4.39  6.52 4.34  C 6.57 4.12  6.72 4.14  6.87 4.14  C 7.38 4.14  7.89 4.15000000000001  8.39 4.15000000000001  C 8.54 4.15000000000001  8.7 4.13000000000001  8.85 4.16000000000001  C 8.94 4.18000000000001  9.01 4.27000000000001  9.09 4.33000000000001  C 9.01 4.38000000000001  8.94 4.45000000000001  8.86 4.47000000000001  C 8.73 4.49000000000001  8.6 4.48000000000001  8.46 4.48000000000001  C 7.93 4.48000000000001  7.41 4.48000000000001  6.88 4.48000000000001  C 6.88 4.94000000000001  6.88 5.36000000000001  6.88 5.82000000000001  C 7.98 5.65000000000001  9.02 5.32000000000001  10 4.87000000000001  C 10 4.85000000000001  10 4.83000000000001  10 4.81000000000001  Z M 4.89 2.08  C 4.89 2.3  4.7 2.49  4.48 2.49  C 4.25 2.49  4.07 2.31  4.07 2.08  C 4.07 1.85  4.25 1.67  4.48 1.67  C 4.71 1.67  4.89 1.85  4.89 2.08  Z " fill-rule="nonzero" fill="#a6dbff" stroke="none" transform="matrix(1 0 0 1 21 30 )" />
  </g>
</svg>