<?xml version="1.0" encoding="utf-8"?>
<svg version="1.1" xmlns:xlink="http://www.w3.org/1999/xlink" width="3px" height="2px" xmlns="http://www.w3.org/2000/svg">
  <g transform="matrix(1 0 0 1 -25 -34 )">
    <path d="M 2.5 0.890000000000001  C 2.48 0.84  2.39 0.789999999999999  2.34 0.780000000000001  C 1.9 0.670000000000002  1.46 0.68  1.09 0.940000000000001  C 0.879999999999999 1.09  0.720000000000001 1.33  0.59 1.56  C 0.48 1.76  0.539999999999999 1.91  0.82 1.89  C 1.05 1.87  1.29 1.89  1.52 1.89  C 1.77 1.89  2.03 1.9  2.28 1.89  C 2.35 1.89  2.48 1.84  2.49 1.82  C 2.51 1.51  2.51 1.2  2.5 0.890000000000001  Z " fill-rule="nonzero" fill="#43bcff" stroke="none" transform="matrix(1 0 0 1 25 34 )" />
  </g>
</svg>