<?xml version="1.0" encoding="utf-8"?>
<svg version="1.1" xmlns:xlink="http://www.w3.org/1999/xlink" width="17px" height="15px" xmlns="http://www.w3.org/2000/svg">
  <g transform="matrix(1 0 0 1 -17 -16 )">
    <path d="M 16.27 7.9  C 16.28 6.77  16.04 5.68  15.66 4.63  C 15.46 4.06  15.26 3.5  15.27 2.89  C 15.27 2.67  15.22 2.45  15.18 2.23  C 15.13 1.94  14.95 1.76  14.65 1.8  C 13.81 1.92  13.08 1.68  12.37 1.25  C 12.05 1.05  11.65 0.970000000000001  11.29 0.840000000000001  C 11.2 0.8  11.1 0.79  10.99 0.77  C 10.97 0.88  10.96 0.96  10.93 1.03  C 10.86 1.19  10.94 1.5  10.66 1.45  C 10.41 1.4  10.55 1.15  10.58 0.98  C 10.62 0.749999999999999  10.57 0.63  10.31 0.63  C 9.43 0.61  8.54 0.53  7.67 0.57  C 7.03 0.6  6.39 0.77  5.76 0.9  C 5.68 0.92  5.57 1.01  5.54 1.1  C 5.48 1.25  5.64 1.5  5.37 1.53  C 5.3 1.54  5.19 1.29  5.09 1.14  C 5.11 1.14  5.07 1.13  5.05 1.14  C 4.99 1.16  4.93 1.18  4.87 1.2  C 3.8 1.68  2.89 2.36  2.2 3.32  C 0.83 5.24  0.49 7.38  0.93 9.67  C 1.35 11.84  2.61 13.25  4.75 13.84  C 6.12 14.22  7.51 14.32  8.92 14.27  C 10.49 14.21  11.98 13.84  13.33 13.03  C 15.27 11.88  16.28 10.18  16.27 7.9  Z M 11.19 5.1  C 13.84 6.29  14.47 9  14.06 10.97  C 13.81 12.15  13.03 12.9  11.97 13.39  C 10.98 13.84  9.93 14  8.86 14.05  C 7.54 14.11  6.22 14.04  4.93 13.69  C 3.55 13.31  2.42 12.59  1.92 11.18  C 1.25 9.29  1.45 7.31  2.96 5.95  C 3.82 5.16  4.86 4.72  6 4.52  C 6.52 4.43  7.05 4.4  7.57 4.34  C 8.83 4.39  10.04 4.58  11.19 5.1  Z " fill-rule="nonzero" fill="#43bcff" stroke="none" transform="matrix(1 0 0 1 17 16 )" />
  </g>
</svg>