<?xml version="1.0" encoding="utf-8"?>
<svg version="1.1" xmlns:xlink="http://www.w3.org/1999/xlink" width="13px" height="10px" xmlns="http://www.w3.org/2000/svg">
  <g transform="matrix(1 0 0 1 -18 -20 )">
    <path d="M 9.39 9.52  C 10.29 9.39  11.14 9.07  11.83 8.45  C 12.65 7.72  12.89 6.78  12.84 5.72  C 12.75 3.68  11.84 2.16  9.94 1.34  C 8.29 0.629999999999999  6.56 0.5  4.81 0.869999999999999  C 3.66 1.12  2.64 1.62  1.85 2.51  C 1.06 3.39  0.849999999999999 4.44  0.899999999999999 5.59  C 0.969999999999999 7.3  1.84 8.57  3.44 9.18  C 4.63 9.63  5.87 9.73  7.13 9.78  C 7.88 9.7  8.65 9.65  9.39 9.52  Z M 4.2 5.68  C 4.2 5.96  3.96 6.21  3.68 6.22  C 3.4 6.23  3.15 6  3.14 5.71  C 3.13 5.42  3.38 5.16  3.67 5.16  C 3.95 5.16  4.2 5.41  4.2 5.68  Z M 6.7 7.21  C 6.6 7.28  6.5 7.36  6.47 7.38  C 5.98 7.36  5.66 7.18  5.59 6.94  C 5.51 6.68  5.7 6.05  5.92 5.88  C 5.97 5.84  6.07 5.86  6.14 5.85  C 6.15 5.93  6.18 6.02  6.16 6.09  C 6.11 6.22  6.02 6.34  5.97 6.46  C 5.82 6.83  5.94 7.01  6.34 7.05  C 6.36 7.05  6.38 7.04  6.4 7.05  C 6.5 7.1  6.6 7.16  6.7 7.21  Z M 9.42 5.73  C 9.42 6.03  9.19 6.28  8.89 6.28  C 8.6 6.28  8.38 6.05  8.38 5.75  C 8.38 5.45  8.6 5.22  8.89 5.22  C 9.17 5.21  9.41 5.44  9.42 5.73  Z " fill-rule="nonzero" fill="#ffffff" stroke="none" transform="matrix(1 0 0 1 18 20 )" />
  </g>
</svg>