<?xml version="1.0" encoding="utf-8"?>
<svg version="1.1" xmlns:xlink="http://www.w3.org/1999/xlink" width="14px" height="15px" xmlns="http://www.w3.org/2000/svg">
  <g transform="matrix(1 0 0 1 -16 -13 )">
    <path d="M 7.00785739942529 4.32343974497125  C 5.48851921695402 4.32343974497125  4.25244028376437 5.56036727729885  4.25244028376437 7.08060120330461  C 4.25244028376437 8.60081941451149  5.48851921695402 9.83760551364944  7.00784168462645 9.83760551364944  C 8.5273055854885 9.83760551364944  9.76338451867816 8.60081941451149  9.76338451867816 7.08060120330461  C 9.76322737068966 5.56024155890805  8.52716415229885 4.32343974497125  7.00784168462645 4.32343974497125  Z M 8.80057022270114 7.08045977011493  C 8.80057022270114 8.06956492456897  7.99636539152299 8.87425691451149  7.00785739942529 8.87425691451149  C 6.01931797772988 8.87425691451149  5.21511314655172 8.06956492456897  5.21511314655172 7.08045977011493  C 5.21511314655172 6.09135461566092  6.01931797772988 5.28666262571839  7.00785739942529 5.28666262571839  C 7.99636539152299 5.28666262571839  8.80057022270114 6.09135461566092  8.80057022270114 7.08045977011493  Z M 13.8982623922414 9.15657327586206  C 14.0936602011494 8.81784078663793  13.9773549748563 8.38340517241379  13.6388110632184 8.18772449712644  L 12.7464776400862 7.67223195043104  C 12.7665026189714 7.47560970956567  12.7765520209605 7.27809909855205  12.7765871946839 7.08045977011493  C 12.7765871946839 6.88316047054599  12.7664511494253 6.68490256824711  12.7464776400862 6.48868758979884  L 13.6388110632184 5.97319504310344  C 13.9772135416667 5.77767151580458  14.0936602011494 5.34307875359195  13.8982623922414 5.00447198275863  L 12.249889996408 2.14764727011494  C 12.0544764727011 1.80904049928161  11.620150862069 1.69265669899425  11.2817483836207 1.88803879310345  L 10.3894149604885 2.40354705459769  C 10.06926794684 2.17120252540872  9.72599237520474 1.97252556765644  9.3650457974138 1.81067483836208  L 9.3650457974138 0.780774066091951  C 9.3650457974138 0.389727011494259  9.04716684626437 0.0716594827586121  8.65621408045977 0.0716594827586121  L 5.3594692887931 0.0716594827586121  C 4.96865795617816 0.0716594827586121  4.65077900502874 0.389868444683913  4.65077900502874 0.780774066091951  L 4.65077900502874 1.81081627155172  C 4.28986368178232 1.97272805443424  3.94659422461891 2.17140147332515  3.62640984195403 2.40368848778735  L 2.73393498563218 1.8881802262931  C 2.39553250718391 1.69265669899425  1.96120689655172 1.80904049928161  1.76579337284483 2.14778870330458  L 0.11743669181034 5.00445626795977  C -0.0779768318965495 5.34306303879309  0.038469827586205 5.77765580100575  0.376888020833334 5.97317932830461  L 1.26920572916666 6.48867187500001  C 1.24918895732142 6.68529986315372  1.23914480867445 6.88281555492814  1.23911188936781 7.08045977011493  C 1.23911188936781 7.27761763649426  1.24924793462644 7.47601697198277  1.26922144396552 7.67223195043104  L 0.376872306034478 8.18772449712644  C 0.038469827586205 8.38324802442528  -0.0779768318965495 8.81784078663793  0.117420977011488 9.15657327586206  L 1.76579337284483 12.013272270115  C 1.96120689655172 12.3520204741379  2.39553250718391 12.4684042744253  2.73393498563218 12.2728807471265  L 3.62640984195403 11.7573724856322  C 3.94661142286468 11.9895934817375  4.28987886255029 12.1882183385306  4.65077900502874 12.3501032686782  L 4.65077900502874 13.3801454741379  C 4.65077900502874 13.7711925287356  4.96865795617816 14.0892600574713  5.3594692887931 14.0892600574713  L 8.65621408045977 14.0892600574713  C 9.04702541307471 14.0892600574713  9.3650457974138 13.771051095546  9.3650457974138 13.3801454741379  L 9.3650457974138 12.3501032686782  C 9.72593034450207 12.1881878732697  10.0691947384789 11.9895647788151  10.3894149604885 11.7573724856322  L 11.2817483836207 12.2728807471265  C 11.6202922952586 12.4684042744253  12.0546179058908 12.3520204741379  12.249889996408 12.013272270115  L 13.8982623922414 9.15657327586206  Z M 13.0344827586207 8.93020159841956  L 11.6190193965517 11.3831245510057  L 10.7892623024425 10.9037760416667  C 10.5356254489943 10.7574241199712  10.2224295079023 10.7779947916667  9.99117052801724 10.9564520474138  C 9.64852505387931 11.2207906788793  9.27295707614942 11.438314924569  8.87474407327586 11.602581716954  C 8.60515669899425 11.7139053520115  8.43083243534483 11.9749281609196  8.43083243534483 12.2674748563219  L 8.43083243534483 13.2249461206897  L 5.60031429597701 13.2249461206897  L 5.60031429597701 12.2674905711207  C 5.60031429597701 11.9749281609196  5.42614718031609 11.7139053520115  5.15654409123563 11.6025974317528  C 4.75833108836206 11.4381734913793  4.38276311063219 11.2207906788793  4.04011763649426 10.9564520474138  C 3.8088586566092 10.7779947916667  3.49550556752874 10.7572826867816  3.24202586206897 10.9037760416667  L 2.41228448275862 11.3831245510057  L 0.996946839080454 8.93006016522988  L 1.82642106681034 8.45085308908047  C 2.07935075431034 8.30476831896553  2.21809671336206 8.02347341954024  2.18005118534482 7.73425826149425  C 2.15180649704999 7.52008284413425  2.13765369446365 7.30428410202748  2.13768408764368 7.08825431034482  C 2.13768408764368 6.87241154813219  2.1519845545977 6.65502873563217  2.18005118534482 6.4422503591954  C 2.21823814655173 6.15301948635057  2.07947647270115 5.87186602011494  1.82642106681034 5.72565553160921  L 0.996946839080454 5.24643274066094  L 2.41228448275862 2.79335264008621  L 3.24202586206897 3.27271686422415  C 3.49550556752874 3.4192102191092  3.80871722341955 3.39849811422413  4.04011763649426 3.22004085847701  C 4.38276311063219 2.95570222701149  4.75833108836206 2.73831941451149  5.15654409123563 2.57391118893678  C 5.42614718031609 2.4625875538793  5.60045572916667 2.20156474497126  5.60045572916667 1.90901804956896  L 5.60045572916667 0.951688218390814  L 8.43111530172413 0.951688218390814  L 8.43111530172413 1.90900233477011  C 8.43111530172413 2.20156474497126  8.60528241738506 2.4625875538793  8.87502693965517 2.57389547413794  C 9.27416830271731 2.73883163728443  9.6496016418637 2.9561182468826  9.99145339439655 3.22004085847701  C 10.2227123742816 3.39835668103447  10.5359240301724 3.41906878591955  10.7894037356322 3.27271686422415  L 11.6191451149425 2.79336835488506  L 13.0344827586207 5.24643274066094  L 12.2050085308908 5.72565553160921  C 11.9519374102011 5.87186602011494  11.8133328843391 6.15316091954023  11.8513784123563 6.44239179238505  C 11.8796269168232 6.65656156681835  11.8937797373638 6.8723553331244  11.8937455100575 7.08838002873563  C 11.8937455100575 7.30422279094829  11.8795707614943 7.52146417025861  11.8513784123563 7.73438397988505  C 11.8131914511494 8.02361485272988  11.951953125 8.30490975215517  12.2050085308908 8.45097880747127  L 13.0344827586207 8.93020159841956  Z " fill-rule="nonzero" fill="#ffffff" stroke="none" transform="matrix(1 0 0 1 16 13 )" />
  </g>
</svg>