<?xml version="1.0" encoding="utf-8"?>
<svg version="1.1" xmlns:xlink="http://www.w3.org/1999/xlink" width="12px" height="11px" xmlns="http://www.w3.org/2000/svg">
  <g transform="matrix(1 0 0 1 -16 -13 )">
    <path d="M 11.3877551020408 2.19856770833333  C 11.5702280912365 2.27018229166667  11.7118847539016 2.37282986111111  11.812725090036 2.50651041666667  C 12.0048019207683 2.77864583333333  12.0480192076831 3.08658854166667  11.9423769507803 3.43033854166667  L 9.96158463385354 9.91861979166667  C 9.8703481392557 10.2241753472222  9.68667466986795 10.4807942708333  9.41056422569028 10.6884765625  C 9.13445378151261 10.8961588541667  8.84033613445378 11  8.52821128451381 11  L 1.87995198079232 11  C 1.51020408163265 11  1.15366146458583 10.8722873263889  0.810324129651861 10.6168619791667  C 0.466986794717887 10.3614366319444  0.228091236494598 10.0475260416667  0.0936374549819928 9.67513020833333  C -0.021608643457383 9.35525173611111  -0.0264105642256903 9.05208333333333  0.0792316926770708 8.765625  C 0.0792316926770708 8.74652777777778  0.0864345738295318 8.68207465277778  0.100840336134454 8.572265625  C 0.115246098439376 8.46245659722222  0.12484993997599 8.37413194444444  0.129651860744298 8.30729166666667  C 0.134453781512605 8.26909722222222  0.127250900360144 8.2177734375  0.108043217286915 8.1533203125  C 0.0888355342136855 8.0888671875  0.0816326530612245 8.04231770833333  0.0864345738295318 8.013671875  C 0.0960384153661465 7.96115451388889  0.115246098439376 7.91102430555555  0.14405762304922 7.86328125  C 0.172869147659064 7.81553819444444  0.212484993997599 7.75944010416667  0.262905162064826 7.69498697916667  C 0.313325330132053 7.63053385416667  0.352941176470588 7.57443576388889  0.381752701080432 7.52669270833333  C 0.492196878751501 7.34526909722222  0.600240096038415 7.12684461805555  0.705882352941176 6.87141927083333  C 0.811524609843938 6.61599392361111  0.883553421368547 6.39756944444444  0.921968787515006 6.21614583333333  C 0.936374549819928 6.16840277777778  0.937575030012005 6.09678819444444  0.925570228091237 6.00130208333333  C 0.913565426170468 5.90581597222222  0.912364945978391 5.83897569444444  0.921968787515006 5.80078125  C 0.936374549819928 5.74826388888889  0.97719087635054 5.68142361111111  1.04441776710684 5.60026041666667  C 1.11164465786315 5.51909722222222  1.15246098439376 5.46419270833333  1.16686674669868 5.435546875  C 1.26770708283313 5.263671875  1.36854741896759 5.04405381944444  1.46938775510204 4.77669270833333  C 1.57022809123649 4.50933159722222  1.63025210084034 4.29448784722222  1.64945978391357 4.13216145833333  C 1.65426170468187 4.08919270833333  1.64825930372149 4.01280381944444  1.63145258103241 3.90299479166667  C 1.61464585834334 3.79318576388889  1.61584633853541 3.72634548611111  1.63505402160864 3.70247395833333  C 1.65426170468187 3.64040798611111  1.70708283313325 3.56759982638889  1.79351740696279 3.48404947916667  C 1.87995198079232 3.40049913194444  1.9327731092437 3.34678819444444  1.95198079231693 3.32291666666667  C 2.04321728691477 3.19878472222222  2.1452581032413 2.9970703125  2.25810324129652 2.7177734375  C 2.37094837935174 2.4384765625  2.43697478991597 2.20811631944444  2.4561824729892 2.02669270833333  C 2.4609843937575 1.98849826388889  2.45378151260504 1.92762586805555  2.43457382953181 1.84407552083333  C 2.41536614645858 1.76052517361111  2.41056422569028 1.697265625  2.42016806722689 1.654296875  C 2.42977190876351 1.61610243055555  2.45138055222089 1.57313368055555  2.48499399759904 1.525390625  C 2.51860744297719 1.47764756944444  2.56182472989196 1.42274305555555  2.61464585834334 1.36067708333333  C 2.66746698679472 1.29861111111111  2.70828331332533 1.24848090277778  2.73709483793517 1.21028645833333  C 2.77551020408163 1.15299479166667  2.81512605042017 1.08018663194444  2.85594237695078 0.991861979166667  C 2.89675870348139 0.903537326388887  2.9327731092437 0.819986979166667  2.96398559423769 0.7412109375  C 2.99519807923169 0.662434895833333  3.03361344537815 0.576497395833333  3.07923169267707 0.4833984375  C 3.12484993997599 0.390299479166667  3.17166866746699 0.313910590277777  3.21968787515006 0.254231770833333  C 3.26770708283313 0.194552951388887  3.33133253301321 0.13845486111111  3.41056422569028 0.0859375  C 3.48979591836735 0.0334201388888874  3.57623049219688 0.00596788194444431  3.66986794717887 0.00358072916666707  C 3.76350540216086 0.0011935763888874  3.87755102040816 0.0143229166666671  4.01200480192077 0.04296875  L 4.00480192076831 0.064453125  C 4.18727490996399 0.021484375  4.30972388955582 0  4.37214885954382 0  L 9.85354141656663 0  C 10.2088835534214 0  10.4825930372149 0.133680555555554  10.6746698679472 0.401041666666667  C 10.8667466986795 0.668402777777777  10.9099639855942 0.978732638888887  10.8043217286915 1.33203125  L 8.83073229291717 7.8203125  C 8.6578631452581 8.38845486111111  8.48619447779112 8.7548828125  8.31572629051621 8.91959635416667  C 8.1452581032413 9.08430989583333  7.83673469387755 9.16666666666667  7.39015606242497 9.16666666666667  L 1.13085234093637 9.16666666666667  C 1.00120048019208 9.16666666666667  0.909963985594238 9.20247395833333  0.857142857142857 9.27408854166667  C 0.804321728691477 9.35047743055556  0.801920768307323 9.453125  0.849939975990396 9.58203125  C 0.965186074429772 9.91623263888889  1.3109243697479 10.0833333333333  1.88715486194478 10.0833333333333  L 8.53541416566627 10.0833333333333  C 8.67466986794718 10.0833333333333  8.80912364945979 10.0463324652778  8.93877551020408 9.97233072916667  C 9.06842737094838 9.89832899305556  9.15246098439376 9.79926215277778  9.19087635054021 9.67513020833333  L 11.3517406962785 2.60677083333333  C 11.3853541416567 2.50173611111111  11.3973589435774 2.36566840277778  11.3877551020408 2.19856770833333  Z M 4.30012004801921 2.0625  L 4.14885954381753 2.52083333333333  C 4.1296518607443 2.58289930555555  4.1344537815126 2.63661024305555  4.16326530612245 2.68196614583333  C 4.19207683073229 2.72732204861111  4.24009603841537 2.75  4.30732292917167 2.75  L 8.68667466986795 2.75  C 8.74909963985594 2.75  8.81032412965186 2.72732204861111  8.8703481392557 2.68196614583333  C 8.93037214885954 2.63661024305555  8.96998799519808 2.58289930555555  8.98919567827131 2.52083333333333  L 9.14045618247299 2.0625  C 9.15966386554622 2.00043402777778  9.15486194477791 1.94672309027778  9.12605042016807 1.9013671875  C 9.09723889555822 1.85601128472222  9.04921968787515 1.83333333333333  8.98199279711885 1.83333333333333  L 4.60264105642257 1.83333333333333  C 4.54021608643457 1.83333333333333  4.47899159663866 1.85601128472222  4.41896758703481 1.9013671875  C 4.35894357743097 1.94672309027778  4.31932773109244 2.00043402777778  4.30012004801921 2.0625  Z M 3.70228091236495 3.89583333333333  L 3.55102040816327 4.35416666666667  C 3.53181272509004 4.41623263888889  3.53661464585834 4.46994357638889  3.56542617046819 4.51529947916667  C 3.59423769507803 4.56065538194444  3.6422569027611 4.58333333333333  3.70948379351741 4.58333333333333  L 8.08883553421369 4.58333333333333  C 8.15126050420168 4.58333333333333  8.2124849939976 4.56065538194444  8.27250900360144 4.51529947916667  C 8.33253301320528 4.46994357638889  8.37214885954382 4.41623263888889  8.39135654261705 4.35416666666667  L 8.54261704681873 3.89583333333333  C 8.56182472989196 3.83376736111111  8.55702280912365 3.78005642361111  8.52821128451381 3.73470052083333  C 8.49939975990396 3.68934461805556  8.45138055222089 3.66666666666667  8.38415366146459 3.66666666666667  L 4.00480192076831 3.66666666666667  C 3.94237695078031 3.66666666666667  3.88115246098439 3.68934461805556  3.82112845138055 3.73470052083333  C 3.76110444177671 3.78005642361111  3.72148859543818 3.83376736111111  3.70228091236495 3.89583333333333  Z " fill-rule="nonzero" fill="#ffffff" stroke="none" fill-opacity="0.647058823529412" transform="matrix(1 0 0 1 16 13 )" />
  </g>
</svg>