<?xml version="1.0" encoding="utf-8"?>
<svg version="1.1" xmlns:xlink="http://www.w3.org/1999/xlink" width="22px" height="23px" xmlns="http://www.w3.org/2000/svg">
  <g transform="matrix(1 0 0 1 -9 -75 )">
    <path d="M 11.012347341954 6.62927427562259  C 8.62481591235633 6.62927427562259  6.68240616020115 8.52589649185824  6.68240616020115 10.8569218450671  C 6.68240616020115 13.187923102251  8.62481591235633 15.0843284542625  11.0123226472701 15.0843284542625  C 13.4000516343391 15.0843284542625  15.3424613864943 13.187923102251  15.3424613864943 10.8569218450671  C 15.3422144396552 8.525703723659  13.3998293821839 6.62927427562259  11.0123226472701 6.62927427562259  Z M 13.8294674928161 10.8567049808429  C 13.8294674928161 12.3733328843391  12.5657170438218 13.6071939355843  11.012347341954 13.6071939355843  C 9.45892825071838 13.6071939355843  8.19517780172414 12.3733328843391  8.19517780172414 10.8567049808429  C 8.19517780172414 9.34007707734674  9.45892825071838 8.10621602610154  11.012347341954 8.10621602610154  C 12.5657170438218 8.10621602610154  13.8294674928161 9.34007707734674  13.8294674928161 10.8567049808429  Z M 21.8401266163793 14.0400790229885  C 22.147180316092 13.5206892061782  21.9644149604885 12.8545545977011  21.4324173850575 12.5545108955939  L 20.0301791487069 11.7640889906609  C 20.0616469726694 11.4626015546674  20.0774388900808 11.1597519511131  20.0774941630747 10.8567049808429  C 20.0774941630747 10.5541793881705  20.061566091954 10.2501839379789  20.0301791487069 9.94932097102489  L 21.4324173850575 9.15889906609195  C 21.9641927083333 8.8590963242337  22.147180316092 8.19272075550766  21.8401266163793 7.67352370689657  L 19.2498271372126 3.29305914750957  C 18.9427487428161 2.77386209889847  18.2602370689655 2.59540693845785  17.7284617456896 2.89499281609196  L 16.3262235093391 3.6854388170498  C 15.8231353450342 3.32917720562671  15.2837023038932 3.02453920373987  14.7165005387931 2.77636808548852  L 14.7165005387931 1.19718690134099  C 14.7165005387931 0.59758141762453  14.2169764727011 0.109877873563205  13.6026221264368 0.109877873563205  L 8.42202316810344 0.109877873563205  C 7.80789107399426 0.109877873563205  7.30836700790231 0.597798281848666  7.30836700790231 1.19718690134099  L 7.30836700790231 2.77658494971264  C 6.74121435708651 3.02484968346584  6.20179092440114 3.32948225909856  5.69864403735633 3.68565568127394  L 4.29618354885057 2.89520968031609  C 3.76440822557471 2.59540693845785  3.08189655172414 2.77386209889847  2.77481815732759 3.2932760117337  L 0.18454337284482 7.67349961087164  C -0.122535021551721 8.19269665948274  0.0604525862068936 8.85907222820882  0.592252604166668 9.15887497006707  L 1.99446614583333 9.94929687500001  C 1.96301121864795 10.2507931235024  1.94722755648842 10.5536505175565  1.94717582614942 10.8567049808429  C 1.94717582614942 11.1590137092912  1.96310389727011 11.4632260237069  1.99449084051724 11.7640889906609  L 0.592227909482752 12.5545108955939  C 0.0604525862068936 12.8543136374521  -0.122535021551721 13.5206892061782  0.184518678160909 14.0400790229885  L 2.77481815732759 18.4203508141763  C 3.08189655172414 18.9397647270115  3.76440822557471 19.1182198874521  4.29618354885057 18.8184171455939  L 5.69864403735633 18.027971144636  C 6.20181795021593 18.3840433386642  6.74123821257903 18.6886014524137  7.30836700790231 18.9368250119732  L 7.30836700790231 20.5162230603448  C 7.30836700790231 21.1158285440613  7.80789107399426 21.6035320881226  8.42202316810344 21.6035320881226  L 13.6026221264368 21.6035320881226  C 14.216754220546 21.6035320881226  14.7165005387931 21.1156116798372  14.7165005387931 20.5162230603448  L 14.7165005387931 18.9368250119732  C 15.2836048270747 18.6885547390135  15.8230203033241 18.3839993275165  16.3262235093391 18.027971144636  L 17.7284617456896 18.8184171455939  C 18.2604593211207 19.1182198874521  18.9429709949713 18.9397647270115  19.2498271372126 18.4203508141763  L 21.8401266163793 14.0400790229885  Z M 20.4827586206897 13.6929757842433  L 18.2584590517241 17.4541243115421  L 16.9545550466954 16.7191232638889  C 16.5559828484195 16.4947169839559  16.0638177981322 16.5262586805555  15.7004108297414 16.7998931393678  C 15.1619679418103 17.2052123742816  14.5717896910919 17.5387495510057  13.9460264008621 17.7906252993295  C 13.5223890984195 17.9613215397509  13.2484509698276 18.36155651341  13.2484509698276 18.8101281130268  L 13.2484509698276 20.2782507183908  L 8.80049389367817 20.2782507183908  L 8.80049389367817 18.8101522090517  C 8.80049389367817 18.36155651341  8.52680271192528 17.9613215397509  8.10314071479885 17.7906493953544  C 7.47737742456896 17.5385326867816  6.88719917385058 17.2052123742816  6.34875628591955 16.7998931393678  C 5.98534931752874 16.5262586805555  5.49293732040231 16.4945001197318  5.09461206896553 16.7191232638889  L 3.79073275862069 17.4541243115421  L 1.56663074712643 13.6927589200191  L 2.87009024784482 12.95797473659  C 3.26755118534482 12.7339780890805  3.48558054956895 12.302659243295  3.42579471982758 11.8591960009578  C 3.38141020964999 11.5307936943392  3.35917009130002 11.1999022897755  3.3592178520115 10.8686566091954  C 3.3592178520115 10.537697707136  3.38169001436782 10.204377394636  3.42579471982758 9.87811721743294  C 3.48580280172414 9.43462987907088  3.2677487428161 9.00352789750957  2.87009024784482 8.77933848180078  L 1.56663074712643 8.04453020234677  L 3.79073275862069 4.28314071479886  L 5.09461206896553 5.01816585847703  C 5.49293732040231 5.24278900263411  5.98512706537357 5.21103044181033  6.34875628591955 4.93739598299808  C 6.88719917385058 4.53207674808429  7.47737742456896 4.19875643558429  8.10314071479885 3.94666382303639  C 8.52680271192528 3.77596758261493  8.80071614583333 3.37573260895594  8.80071614583333 2.92716100933907  L 8.80071614583333 1.45925526819925  L 13.2488954741379 1.45925526819925  L 13.2488954741379 2.92713691331418  C 13.2488954741379 3.37573260895594  13.5225866558908 3.77596758261493  13.9464709051724 3.94663972701151  C 14.5736930471272 4.19954184383613  15.1636597229287 4.53271464521998  15.7008553340517 4.93739598299808  C 16.0642623024425 5.21081357758619  16.5564520474138 5.24257213840998  16.9547772988506 5.01816585847703  L 18.2586566091954 4.28316481082376  L 20.4827586206897 8.04453020234677  L 19.1792991199713 8.77933848180078  C 18.7816159303161 9.00352789750957  18.5638088182471 9.43484674329501  18.6235946479885 9.87833408165708  C 18.6679851550079 10.2067277357881  18.6902253015716 10.5376115107908  18.6901715158046 10.8688493773946  C 18.6901715158046 11.199808279454  18.6678969109195 11.5329117277299  18.6235946479885 11.8593887691571  C 18.5635865660919 12.3028761075191  18.781640625 12.7341949533046  19.1792991199713 12.9581675047893  L 20.4827586206897 13.6929757842433  Z " fill-rule="nonzero" fill="#ffffff" stroke="none" fill-opacity="0.647058823529412" transform="matrix(1 0 0 1 9 75 )" />
  </g>
</svg>