<?xml version="1.0" encoding="utf-8"?>
<svg version="1.1" xmlns:xlink="http://www.w3.org/1999/xlink" width="18px" height="30px" xmlns="http://www.w3.org/2000/svg">
  <g transform="matrix(1 0 0 1 -17 -16 )">
    <path d="M 17.6907216494845 1.80360721442886  C 17.8969072164948 2.00400801603206  18 2.23446893787575  18 2.49498997995992  C 18 2.75551102204409  17.8969072164948 2.98597194388777  17.6907216494845 3.18637274549098  L 5.5360824742268 15  L 17.6907216494845 26.813627254509  C 17.8969072164948 27.0140280561122  18 27.2444889779559  18 27.5050100200401  C 18 27.7655310621243  17.8969072164948 27.9959919839679  17.6907216494845 28.1963927855711  L 16.1443298969072 29.6993987975952  C 15.9381443298969 29.8997995991984  15.7010309278351 30  15.4329896907216 30  C 15.1649484536083 30  14.9278350515464 29.8997995991984  14.7216494845361 29.6993987975952  L 0.309278350515464 15.6913827655311  C 0.103092783505155 15.4909819639279  0 15.2605210420842  0 15  C 0 14.7394789579158  0.103092783505155 14.5090180360721  0.309278350515464 14.3086172344689  L 14.7216494845361 0.30060120240481  C 14.9278350515464 0.100200400801602  15.1649484536083 0  15.4329896907216 0  C 15.7010309278351 0  15.9381443298969 0.100200400801602  16.1443298969072 0.30060120240481  L 17.6907216494845 1.80360721442886  Z " fill-rule="nonzero" fill="#ffffff" stroke="none" transform="matrix(1 0 0 1 17 16 )" />
  </g>
</svg>