<?xml version="1.0" encoding="utf-8"?>
<svg version="1.1" xmlns:xlink="http://www.w3.org/1999/xlink" width="18px" height="24px" xmlns="http://www.w3.org/2000/svg">
  <defs>
    <linearGradient gradientUnits="userSpaceOnUse" x1="9" y1="0" x2="9" y2="24" id="LinearGradient450">
      <stop id="Stop451" stop-color="#27c9ff" offset="0" />
      <stop id="Stop452" stop-color="#27c9ff" offset="0.04" />
      <stop id="Stop453" stop-color="#0d6dff" offset="0.52" />
      <stop id="Stop454" stop-color="#0d6dff" offset="1" />
    </linearGradient>
  </defs>
  <g transform="matrix(1 0 0 1 -25 -12 )">
    <path d="M 17.45 19.15  C 17.96 18.64  17.96 17.81  17.45 17.31  C 16.94 16.8  16.12 16.8  15.61 17.31  L 12.26 20.66  C 12.12 20.8  11.9 20.8  11.76 20.66  L 3.33 12.24  C 3.19 12.1  3.19 11.88  3.33 11.74  L 11.32 3.76  L 11.73 3.35  L 11.75 3.33  C 11.76 3.32  11.77 3.31  11.78 3.3  C 11.79 3.3  11.79 3.29  11.8 3.29  C 12.45 2.76  13.29 2.44  14.2 2.44  C 14.53 2.44  14.85 2.48  15.16 2.56  C 14.65 2.05  13.94 1.34  13.02 0.420000000000002  C 12.45 -0.129999999999998  11.53 -0.129999999999998  10.97 0.430000000000002  L 0.43 10.98  C -0.14 11.54  -0.14 12.45  0.42 13.02  C 0.42 13.02  0.42 13.02  0.43 13.03  L 10.98 23.57  C 11.55 24.14  12.46 24.14  13.03 23.57  L 17.45 19.15  Z " fill-rule="nonzero" fill="url(#LinearGradient450)" stroke="none" transform="matrix(1 0 0 1 25 12 )" />
  </g>
</svg>