<?xml version="1.0" encoding="utf-8"?>
<svg version="1.1" xmlns:xlink="http://www.w3.org/1999/xlink" width="24px" height="23px" xmlns="http://www.w3.org/2000/svg">
  <g transform="matrix(1 0 0 1 -14 -12 )">
    <path d="M 23.93 12.01  C 23.93 5.43  18.59 0.08  12 0.08  C 5.41 0.08  0.0700000000000003 5.42  0.0700000000000003 12.01  C 0.0700000000000003 14.87  1.08 17.5  2.76 19.55  C 2.79 19.55  2.81 19.55  2.84 19.55  C 4.2 19.55  5.56 19.55  6.93 19.56  C 7.15 19.56  7.28 19.49  7.39 19.3  C 7.61 18.95  7.87 18.63  8.13 18.28  C 7.8 18.18  7.49 18.09  7.18 17.98  C 5.18 17.27  4.05 15.81  3.63 13.77  C 3.16 11.53  3.46 9.42  4.68 7.48  C 5.44 6.29  6.5 5.42  7.82 4.88  C 8.1 4.77  8.13 4.63  8.03 4.38  C 7.86 3.96  7.66 3.56  7.16 3.45  C 6.95 3.41  6.8 3.41  6.7 3.66  C 6.58 3.97  6.23 4.06  5.96 3.9  C 5.71 3.76  5.62 3.44  5.75 3.19  C 5.9 2.92  6.23 2.83  6.52 2.99  C 6.6 3.04  6.7 3.1  6.79 3.1  C 7.62 3.12  8.05 3.43  8.33 4.22  C 8.47 4.62  8.47 4.62  8.89 4.51  C 10.3 4.16  11.72 4.1  13.15 4.28  C 13.3 4.3  13.45 4.31  13.59 4.32  C 13.72 3.57  13.32 2.93  12.71 2.87  C 12.6 2.86  12.45 2.93  12.37 3.02  C 12.14 3.26  11.82 3.32  11.58 3.13  C 11.35 2.94  11.32 2.59  11.52 2.37  C 11.73 2.13  12.04 2.13  12.31 2.35  C 12.4 2.43  12.53 2.5  12.65 2.52  C 13.42 2.63  13.86 3.08  13.95 3.86  C 14 4.4  14.01 4.37  14.53 4.56  C 15.08 4.76  15.62 5  16.14 5.27  C 16.4 5.41  16.66 5.49  16.95 5.47  C 17.17 5.46  17.4 5.45  17.62 5.45  C 18.14 5.46  18.42 5.67  18.51 6.18  C 18.57 6.55  18.58 6.93  18.64 7.3  C 18.68 7.55  18.72 7.8  18.81 8.04  C 19.26 9.25  19.6 10.48  19.61 11.77  C 19.64 14.41  18.43 16.31  16.11 17.52  C 15.69 17.74  15.24 17.91  14.76 18.13  C 16.15 19.35  17.01 20.86  17.31 22.7  C 21.24 20.75  23.93 16.7  23.93 12.01  Z " fill-rule="nonzero" fill="#a6dbff" stroke="none" transform="matrix(1 0 0 1 14 12 )" />
  </g>
</svg>