<?xml version="1.0" encoding="utf-8"?>
<svg version="1.1" xmlns:xlink="http://www.w3.org/1999/xlink" width="30px" height="26px" xmlns="http://www.w3.org/2000/svg">
  <g transform="matrix(1 0 0 1 -1658 -21 )">
    <path d="M 14.9999966015625 2.54686932751938  C 12.1911308278549 2.54371342144374  9.46655193935823 3.37184703914305  7.28386198242188 4.89218239728682  L 9.54681600585938 4.89218239728682  C 10.3043158300781 4.89218239728682  10.9090884375 5.41694619186047  10.9090884375 6.06483893217054  C 10.9090884375699 6.71249112644095  10.2985677802057 7.23750734031897  9.5454523828824 7.23750734031897  C 9.54340691610832 7.23750734031897  9.5413614519229 7.23750338255405  9.53931600585938 7.23749546705426  L 4.09772633789063 7.23749546705426  C 3.34111154545363 7.23749554757322  2.72764852296863 6.71021150455348  2.727272109375 6.05956196511628  L 2.727272109375 1.38007606976744  C 2.727272109375 0.730424348837209  3.33749923828125 0.201556257751938  4.0909081640625 0.201556257751938  C 4.84908981445313 0.201556257751938  5.45454421875 0.726320052325582  5.45454421875 1.37304012209302  L 5.45454421875 3.14902844573643  C 8.14016613018744 1.24065149725791  11.5161347432792 0.198210217836351  14.9999966015625 0.201556257751938  C 23.284085625 0.201556257751938  29.999993203125 5.9768896996124  29.9999931738281 13.1007781162791  C 29.9999931445313 20.2246665329457  23.2840855957031 26  14.9999966015625 26  C 6.71590760742188 26  0 20.2246665581395  0 13.1007781162791  C 0 12.4531378020974  0.610520665299526 11.9281215988693  1.3636360546875 11.9281215988693  C 2.11675145201084 11.9281215988693  2.727272109375 12.4531378127473  2.727272109375 13.100778133753  C 2.727272109375 18.9294674127907  8.22204357421875 23.6546869302326  14.9999966015625 23.6546869302326  C 21.7779496289062 23.6546869302326  27.27272109375 18.9294674379845  27.2727210644531 13.1007781162791  C 27.2727210351563 7.27208879457364  21.7779495996094 2.54686932751938  14.9999966015625 2.54686932751938  Z " fill-rule="nonzero" fill="#969696" stroke="none" transform="matrix(1 0 0 1 1658 21 )" />
  </g>
</svg>