<?xml version="1.0" encoding="utf-8"?>
<svg version="1.1" xmlns:xlink="http://www.w3.org/1999/xlink" width="25px" height="26px" xmlns="http://www.w3.org/2000/svg">
  <g transform="matrix(1 0 0 1 -1608 -21 )">
    <path d="M 23.035885989011 0  C 24.0065378163321 0  24.7934065934066 0.775721469399291  24.7934065934066 1.73262239583333  L 24.7934065934066 24.239921875  C 24.7929894721063 25.1965319292593  24.0062428539056 25.9717995675493  23.035885989011 26  L 1.96335851648352 26  C 0.993015061283808 25.971780876348  0.206289368099798 25.1965187097173  0.205872252747253 24.239921875  L 0.205872252747253 1.73262239583333  C 0.205872252561966 0.77573469011784  0.992720100051226 1.86968816443163E-05  1.96335851648352 0  L 23.0366414835165 0  Z M 18.648385989011 10.3877109375  L 6.35384615384615 10.3877109375  C 6.35286172248305 10.3877125710281  6.35187728989874 10.3877133877925  6.3508928571411 10.3877133877925  C 5.38187209055096 10.3877133877925  4.59632554944879 9.61329542268932  4.59632554944879 8.65800245029255  L 4.59632554945055 1.73187760416667  L 2 1.73187760416667  L 2 24  L 23 24  L 23 1.73262239583333  L 20.4059065934066 1.73262239583333  L 20.4059065934066 8.65512239583333  C 20.4058876278462 9.61201010136617  19.6190244056286 10.3877109376827  18.648385989011 10.3877109375  Z M 6.35384615384615 2  L 6.35384615384615 9  L 18.6476304945055 9  L 18.6476304945055 2  L 6.35384615384615 2  Z M 6.35384615384615 15.5812109375  L 18.6447115384615 15.5812109375  C 18.6570382538012 15.5806981602418  18.6693745668443 15.5804416861018  18.6817122515104 15.5804416861018  C 19.1664217759412 15.5804416861018  19.5593564822796 15.9678098174338  19.5593564822796 16.4456526236018  C 19.5593564822796 16.9234954297699  19.1664217759412 17.3108635611018  18.6817122515104 17.3108635611018  C 18.6703484513728 17.3108635611018  18.6589857229944 17.310645978871  18.6476304945055 17  L 6.35384615384615 17  C 6.35384615384615 17.3102109375  6.35384615384615 17.3102109375  6.35384615384615 17.3102109375  C 5.86953491168684 17.3102109375  5.47692307692308 16.9231611037287  5.47692307692308 16.4457109375  C 5.47692307692308 15.9682607712713  5.86953491168684 15.5812109375  6.35384615384615 15.5812109375  Z " fill-rule="nonzero" fill="#333333" stroke="none" transform="matrix(1 0 0 1 1608 21 )" />
  </g>
</svg>