<?xml version="1.0" encoding="utf-8"?>
<svg version="1.1" xmlns:xlink="http://www.w3.org/1999/xlink" width="787px" height="166px" xmlns="http://www.w3.org/2000/svg">
  <g transform="matrix(1 0 0 1 -5 -56 )">
    <path d="M 6 59  A 2 2 0 0 1 8 57 L 789 57  A 2 2 0 0 1 791 59 L 791 219  A 2 2 0 0 1 789 221 L 8 221  A 2 2 0 0 1 6 219 L 6 59  Z " fill-rule="nonzero" fill="#ffffff" stroke="none" />
    <path d="M 5.5 59  A 2.5 2.5 0 0 1 8 56.5 L 789 56.5  A 2.5 2.5 0 0 1 791.5 59 L 791.5 219  A 2.5 2.5 0 0 1 789 221.5 L 8 221.5  A 2.5 2.5 0 0 1 5.5 219 L 5.5 59  Z " stroke-width="1" stroke="#797979" fill="none" stroke-opacity="0.4" />
  </g>
</svg>