<?xml version="1.0" encoding="utf-8"?>
<svg version="1.1" xmlns:xlink="http://www.w3.org/1999/xlink" width="395px" height="150px" xmlns="http://www.w3.org/2000/svg">
  <g transform="matrix(1 0 0 1 -392 -60 )">
    <path d="M 393 64  A 3 3 0 0 1 396 61 L 783 61  A 3 3 0 0 1 786 64 L 786 206  A 3 3 0 0 1 783 209 L 396 209  A 3 3 0 0 1 393 206 L 393 64  Z " fill-rule="nonzero" fill="#ffffff" stroke="none" />
    <path d="M 392.5 64  A 3.5 3.5 0 0 1 396 60.5 L 783 60.5  A 3.5 3.5 0 0 1 786.5 64 L 786.5 206  A 3.5 3.5 0 0 1 783 209.5 L 396 209.5  A 3.5 3.5 0 0 1 392.5 206 L 392.5 64  Z " stroke-width="1" stroke="#797979" fill="none" stroke-opacity="0.4" />
  </g>
</svg>