<?xml version="1.0" encoding="utf-8"?>
<svg version="1.1" xmlns:xlink="http://www.w3.org/1999/xlink" width="369px" height="150px" xmlns="http://www.w3.org/2000/svg">
  <g>
    <path d="M 1 4  A 3 3 0 0 1 4 1 L 365 1  A 3 3 0 0 1 368 4 L 368 146  A 3 3 0 0 1 365 149 L 4 149  A 3 3 0 0 1 1 146 L 1 4  Z " fill-rule="nonzero" fill="#ffffff" stroke="none" />
    <path d="M 0.5 4  A 3.5 3.5 0 0 1 4 0.5 L 365 0.5  A 3.5 3.5 0 0 1 368.5 4 L 368.5 146  A 3.5 3.5 0 0 1 365 149.5 L 4 149.5  A 3.5 3.5 0 0 1 0.5 146 L 0.5 4  Z " stroke-width="1" stroke="#797979" fill="none" stroke-opacity="0.4" />
  </g>
</svg>