<?xml version="1.0" encoding="utf-8"?>
<svg version="1.1" xmlns:xlink="http://www.w3.org/1999/xlink" width="787px" height="244px" xmlns="http://www.w3.org/2000/svg">
  <g>
    <path d="M 1 3  A 2 2 0 0 1 3 1 L 784 1  A 2 2 0 0 1 786 3 L 786 241  A 2 2 0 0 1 784 243 L 3 243  A 2 2 0 0 1 1 241 L 1 3  Z " fill-rule="nonzero" fill="#ffffff" stroke="none" />
    <path d="M 0.5 3  A 2.5 2.5 0 0 1 3 0.5 L 784 0.5  A 2.5 2.5 0 0 1 786.5 3 L 786.5 241  A 2.5 2.5 0 0 1 784 243.5 L 3 243.5  A 2.5 2.5 0 0 1 0.5 241 L 0.5 3  Z " stroke-width="1" stroke="#797979" fill="none" stroke-opacity="0.4" />
  </g>
</svg>