<?xml version="1.0" encoding="utf-8"?>
<svg version="1.1" xmlns:xlink="http://www.w3.org/1999/xlink" width="547px" height="40px" xmlns="http://www.w3.org/2000/svg">
  <g>
    <path d="M 1 6  A 5 5 0 0 1 6 1 L 541 1  A 5 5 0 0 1 546 6 L 546 34  A 5 5 0 0 1 541 39 L 6 39  A 5 5 0 0 1 1 34 L 1 6  Z " fill-rule="nonzero" fill="#ffffff" stroke="none" />
    <path d="M 0.5 6  A 5.5 5.5 0 0 1 6 0.5 L 541 0.5  A 5.5 5.5 0 0 1 546.5 6 L 546.5 34  A 5.5 5.5 0 0 1 541 39.5 L 6 39.5  A 5.5 5.5 0 0 1 0.5 34 L 0.5 6  Z " stroke-width="1" stroke="#797979" fill="none" stroke-opacity="0.4" />
  </g>
</svg>