<?xml version="1.0" encoding="utf-8"?>
<svg version="1.1" xmlns:xlink="http://www.w3.org/1999/xlink" width="41px" height="15px" xmlns="http://www.w3.org/2000/svg">
  <g transform="matrix(1 0 0 1 -1400 -131 )">
    <path d="M 31.0703125 13.621875  C 31.3824118589744 13.503125  31.5384615384615 13.3625  31.5384615384615 13.2  C 31.5384615384615 13.0375  31.3824118589744 12.896875  31.0703125 12.778125  C 30.7582131410256 12.659375  30.3886217948718 12.6  29.9615384615385 12.6  C 29.5344551282051 12.6  29.1648637820513 12.659375  28.8527644230769 12.778125  C 28.5406650641026 12.896875  28.3846153846154 13.0375  28.3846153846154 13.2  C 28.3846153846154 13.3625  28.5406650641026 13.503125  28.8527644230769 13.621875  C 29.1648637820513 13.740625  29.5344551282051 13.8  29.9615384615385 13.8  C 30.3886217948718 13.8  30.7582131410256 13.740625  31.0703125 13.621875  Z M 37.3780048076923 13.621875  C 37.6901041666667 13.503125  37.8461538461538 13.3625  37.8461538461538 13.2  C 37.8461538461538 13.0375  37.6901041666667 12.896875  37.3780048076923 12.778125  C 37.065905448718 12.659375  36.6963141025641 12.6  36.2692307692308 12.6  C 35.8421474358974 12.6  35.4725560897436 12.659375  35.1604567307692 12.778125  C 34.8483573717949 12.896875  34.6923076923077 13.0375  34.6923076923077 13.2  C 34.6923076923077 13.3625  34.8483573717949 13.503125  35.1604567307692 13.621875  C 35.4725560897436 13.740625  35.8421474358974 13.8  36.2692307692308 13.8  C 36.6963141025641 13.8  37.065905448718 13.740625  37.3780048076923 13.621875  Z M 40.3100961538462 10.4625  C 40.7700320512821 10.6375  41 10.85  41 11.1  L 41 14.1  C 41 14.35  40.7700320512821 14.5625  40.3100961538462 14.7375  C 39.8501602564103 14.9125  39.2916666666667 15  38.6346153846154 15  L 2.36538461538462 15  C 1.70833333333333 15  1.14983974358974 14.9125  0.689903846153846 14.7375  C 0.229967948717949 14.5625  0 14.35  0 14.1  L 0 11.1  C 0 10.85  0.229967948717949 10.6375  0.689903846153846 10.4625  C 1.14983974358974 10.2875  1.70833333333333 10.2  2.36538461538462 10  L 12.8864182692308 10  C 13.2313701923077 10.55  13.8103966346154 10.8375  14.6234975961538 11.0625  C 15.4365985576923 11.2875  16.3441506410256 11.4  17.3461538461538 11.4  L 23.6538461538462 11.4  C 24.6558493589744 11.4  25.5634014423077 11.2875  26.3765024038462 11.0625  C 27.1896033653846 10.8375  27.7686298076923 10.55  28.1135817307692 10  L 38.6346153846154 10  C 39.2916666666667 10.2  39.8501602564103 10.2875  40.3100961538462 10.4625  Z M 32.6472355769231 4.378125  C 33.1564503205128 4.565625  33.2714342948718 4.78125  32.9921875 5.025  C 32.7129407051282 5.275  32.2283653846154 5.4  31.5384615384615 5.4  L 25.2307692307692 5.4  L 25.2307692307692 9.6  C 25.2307692307692 9.7625  25.0747195512821 9.903125  24.7626201923077 10.021875  C 24.4505208333333 10.140625  24.0809294871795 10.2  23.6538461538462 10.2  L 17.3461538461538 10.2  C 16.9190705128205 10.2  16.5494791666667 10.140625  16.2373798076923 10.021875  C 15.925280448718 9.903125  15.7692307692308 9.7625  15.7692307692308 9.6  L 15.7692307692308 5.4  L 9.46153846153846 5.4  C 8.77163461538462 5.4  8.2870592948718 5.275  8.0078125 5.025  C 7.72856570512821 4.78125  7.84354967948718 4.565625  8.35276442307692 4.378125  L 19.3912259615385 0.178125  C 19.6868990384615 0.0593749999999993  20.0564903846154 0  20.5 0  C 20.9435096153846 0  21.3131009615385 0.0593749999999993  21.6087740384615 0.178125  L 32.6472355769231 4.378125  Z " fill-rule="nonzero" fill="#aaaaaa" stroke="none" transform="matrix(1 0 0 1 1400 131 )" />
  </g>
</svg>