<?xml version="1.0" encoding="utf-8"?>
<svg version="1.1" xmlns:xlink="http://www.w3.org/1999/xlink" width="29px" height="29px" xmlns="http://www.w3.org/2000/svg">
  <g transform="matrix(1 0 0 1 -799 -9 )">
    <path d="M 28.3164983164983 21.6767676767677  C 28.7721661054994 22.1324354657688  29 22.685746352413  29 23.3367003367003  C 29 23.9876543209877  28.7721661054994 24.5409652076319  28.3164983164983 24.996632996633  L 24.996632996633 28.3164983164983  C 24.5409652076319 28.7721661054994  23.9876543209877 29  23.3367003367003 29  C 22.685746352413 29  22.1324354657688 28.7721661054994  21.6767676767677 28.3164983164983  L 14.5 21.1397306397306  L 7.32323232323232 28.3164983164983  C 6.8675645342312 28.7721661054994  6.31425364758698 29  5.66329966329966 29  C 5.01234567901235 29  4.45903479236813 28.7721661054994  4.003367003367 28.3164983164983  L 0.683501683501684 24.996632996633  C 0.227833894500561 24.5409652076319  0 23.9876543209877  0 23.3367003367003  C 0 22.685746352413  0.227833894500561 22.1324354657688  0.683501683501684 21.6767676767677  L 7.86026936026936 14.5  L 0.683501683501684 7.32323232323232  C 0.227833894500561 6.8675645342312  0 6.31425364758698  0 5.66329966329966  C 0 5.01234567901235  0.227833894500561 4.45903479236812  0.683501683501684 4.003367003367  L 4.003367003367 0.683501683501684  C 4.45903479236813 0.22783389450056  5.01234567901235 0  5.66329966329966 0  C 6.31425364758698 0  6.8675645342312 0.22783389450056  7.32323232323232 0.683501683501684  L 14.5 7.86026936026936  L 21.6767676767677 0.683501683501684  C 22.1324354657688 0.22783389450056  22.685746352413 0  23.3367003367003 0  C 23.9876543209877 0  24.5409652076319 0.22783389450056  24.996632996633 0.683501683501684  L 28.3164983164983 4.003367003367  C 28.7721661054994 4.45903479236812  29 5.01234567901235  29 5.66329966329966  C 29 6.31425364758698  28.7721661054994 6.8675645342312  28.3164983164983 7.32323232323232  L 21.1397306397306 14.5  L 28.3164983164983 21.6767676767677  Z " fill-rule="nonzero" fill="#000000" stroke="none" fill-opacity="0.6" transform="matrix(1 0 0 1 799 9 )" />
  </g>
</svg>