<?xml version="1.0" encoding="utf-8"?>
<svg version="1.1" xmlns:xlink="http://www.w3.org/1999/xlink" width="17px" height="17px" xmlns="http://www.w3.org/2000/svg">
  <g transform="matrix(1 0 0 1 -234 -66 )">
    <path d="M 10.2202314049587 6.74380165289256  L 15.2735867768595 6.74380165289256  C 15.5013774104683 6.74380165289256  15.7201763085399 6.78876033057851  15.9299834710744 6.87867768595041  C 16.1397906336088 6.96859504132232  16.3196253443526 7.08848484848485  16.4694876033058 7.23834710743802  C 16.619349862259 7.38820936639119  16.7392396694215 7.56804407713499  16.8291570247934 7.77785123966942  C 16.9190743801653 7.98765840220386  16.9640330578512 8.20645730027548  16.9640330578512 8.4342479338843  C 16.9640330578512 8.67402754820937  16.9190743801653 8.89582369146006  16.8291570247934 9.09963636363636  C 16.7392396694215 9.30344903581267  16.619349862259 9.48028650137741  16.4694876033058 9.63014876033058  C 16.3196253443526 9.78001101928375  16.1397906336088 9.89990082644628  15.9299834710744 9.98981818181818  C 15.7201763085399 10.0797355371901  15.5013774104683 10.124694214876  15.2735867768595 10.124694214876  L 10.2202314049587 10.124694214876  L 10.2202314049587 15.1780495867769  C 10.2202314049587 15.4178292011019  10.1752727272727 15.6396253443526  10.0853553719008 15.8434380165289  C 9.99543801652893 16.0472506887052  9.87554820936639 16.22408815427  9.72568595041322 16.3739504132231  C 9.57582369146005 16.5238126721763  9.39598898071625 16.6437024793388  9.18618181818182 16.7336198347107  C 8.97637465564738 16.8235371900826  8.75757575757576 16.8684958677686  8.52978512396694 16.8684958677686  C 8.29000550964187 16.8684958677686  8.06820936639119 16.8235371900826  7.86439669421488 16.7336198347107  C 7.66058402203857 16.6437024793388  7.48374655647383 16.5238126721763  7.33388429752066 16.3739504132231  C 7.18402203856749 16.22408815427  7.06413223140496 16.0472506887052  6.97421487603306 15.8434380165289  C 6.88429752066116 15.6396253443526  6.83933884297521 15.4178292011019  6.83933884297521 15.1780495867769  L 6.83933884297521 10.124694214876  L 1.78598347107438 10.124694214876  C 1.54620385674931 10.124694214876  1.32440771349862 10.0797355371901  1.12059504132231 9.98981818181818  C 0.916782369146005 9.89990082644628  0.739944903581267 9.78001101928375  0.590082644628099 9.63014876033058  C 0.440220385674931 9.48028650137741  0.320330578512396 9.30344903581267  0.230413223140495 9.09963636363636  C 0.140495867768594 8.89582369146006  0.0955371900826438 8.67402754820937  0.095537190082644 8.4342479338843  C 0.0955371900826441 8.20645730027548  0.140495867768594 7.98765840220386  0.230413223140495 7.77785123966942  C 0.320330578512396 7.56804407713499  0.440220385674931 7.38820936639119  0.590082644628099 7.23834710743802  C 0.739944903581267 7.08848484848485  0.916782369146005 6.96859504132232  1.12059504132231 6.87867768595041  C 1.32440771349862 6.78876033057851  1.54620385674931 6.74380165289256  1.78598347107438 6.74380165289256  L 6.83933884297521 6.74380165289256  L 6.83933884297521 1.69044628099174  C 6.83933884297521 1.46265564738292  6.88429752066116 1.2438567493113  6.97421487603306 1.03404958677686  C 7.06413223140496 0.824242424242425  7.18402203856749 0.644407713498623  7.33388429752066 0.494545454545455  C 7.48374655647383 0.344683195592287  7.66058402203857 0.224793388429753  7.86439669421488 0.134876033057852  C 8.06820936639118 0.0449586776859506  8.29000550964187 0  8.52978512396694 0  C 8.99735537190083 0  9.39598898071626 0.164848484848485  9.72568595041322 0.494545454545455  C 10.0553829201102 0.824242424242425  10.2202314049587 1.22287603305785  10.2202314049587 1.69044628099174  L 10.2202314049587 6.74380165289256  Z " fill-rule="nonzero" fill="#50af08" stroke="none" transform="matrix(1 0 0 1 234 66 )" />
  </g>
</svg>