<svg t="1642837619995" class="icon" viewBox="0 0 1024 1024" version="1.1" xmlns="http://www.w3.org/2000/svg" p-id="6233" width="128" height="128"><path d="M719.6 274.7H126.4c-16.4 0-29.7 13.3-29.7 29.7v593.2c0 16.4 13.3 29.7 29.7 29.7h593.2c16.4 0 29.7-13.3 29.7-29.7V304.4c0-16.4-13.3-29.7-29.7-29.7zM606.5 635.6H461.8v144.7c0 15.9-13 28.9-28.9 28.9-15.9 0-28.9-13-28.9-28.9V635.6H259.3c-15.9 0-28.9-13-28.9-28.9 0-15.9 13-28.9 28.9-28.9H404V433c0-15.9 13-28.9 28.9-28.9 15.9 0 28.9 13 28.9 28.9v144.7h144.7c15.9 0 28.9 13 28.9 28.9 0.1 16-12.9 29-28.9 29z" fill="#040000" p-id="6234"></path><path d="M897.6 96.7H304.4c-16.4 0-29.7 13.3-29.7 29.7v59.3c0 16.4 13.3 29.7 29.7 29.7h474.4c16.4 0 29.7 13.3 29.7 29.7l0.2 474.6c0 16.4 13.3 29.7 29.7 29.7h59.3c16.4 0 29.7-13.3 29.7-29.7V126.4c-0.1-16.4-13.4-29.7-29.8-29.7z" fill="#040000" p-id="6235"></path></svg>