<?xml version="1.0" encoding="utf-8"?>
<svg version="1.1" xmlns:xlink="http://www.w3.org/1999/xlink" width="17px" height="19px" xmlns="http://www.w3.org/2000/svg">
  <g transform="matrix(1 0 0 1 -880 -65 )">
    <path d="M 12.3255730337079 0.314133341249998  L 12.3250636783708 0.31464  C 12.7045393258427 -0.0623199999999999  13.3315655589888 -0.0501599999999999  13.7319250856742 0.34808  L 15.8931535660112 2.49786665875  C 16.2909662921348 2.8935733175  16.3072659255618 3.5188  15.9272808988764 3.89728  L 5.28668165589888 14.48154665875  C 5.09719850983146 14.66952  4.73504120646068 14.87928  4.46966292134832 14.95122665875  L 1.03859176825843 15.88349334125  C 0.515475671348318 16.0258666825  0.200179775280903 15.71477334125  0.332614240168543 15.19594665875  L 1.22196255477528 11.71008  C 1.2881797752809 11.45016  1.49803746910113 11.08434665875  1.68497379073034 10.8984  L 12.3255730337079 0.314133341249998  Z M 13.0458127261236 1.03106665875  L 2.40521348314607 11.61533334125  C 2.33594008286517 11.68424  2.21165542275281 11.9021066825  2.18720598455056 11.99584  L 1.49192508567416 14.72170665875  L 4.16506367837079 13.99565334125  C 4.27101123595506 13.96677334125  4.4905468244382 13.8401066825  4.56644193960674 13.76461334125  L 15.2070412064607 3.18034665875  L 13.0458127261236 1.03106665875  Z M 12.2914457008427 1.78093334125  L 14.4526741573034 3.93072  L 13.7319250856742 4.64765334125  L 11.5712059845506 2.49786665875  L 12.2914457008427 1.78144  Z M 3.64755056179775 10.37957334125  L 5.80826966292135 12.52936  L 5.08802997050562 13.24578665875  L 2.92680149016854 11.09650665875  L 3.64704120646067 10.37957334125  Z M 0.06367041994382 18.30333334125  C 0.06367041994382 18.02365334125  0.288808988764045 17.7966666825  0.576089887640449 17.79666665875  L 16.3602396924157 17.79666665875  C 16.6415532750516 17.79666665875  16.8696029922753 18.0235090539413  16.8696029922753 18.303333329375  C 16.8696029922753 18.5831576048087  16.6415532750516 18.81  16.3602396924157 18.81  L 0.57608988764045 18.81  C 0.575071172482336 18.8100060800415  0.574052441278133 18.8100091200827  0.573033707782649 18.8100091200827  C 0.291720131740017 18.8100091200827  0.0636704198613012 18.5831667302081  0.0636704198613012 18.3033424613327  Z " fill-rule="nonzero" fill="#3d3d3d" stroke="none" transform="matrix(1 0 0 1 880 65 )" />
  </g>
</svg>