<?xml version="1.0" encoding="utf-8"?>
<svg version="1.1" xmlns:xlink="http://www.w3.org/1999/xlink" width="16px" height="17px" xmlns="http://www.w3.org/2000/svg">
  <g transform="matrix(1 0 0 1 -1008 -66 )">
    <path d="M 14.742967032967 0  C 15.3641842024525 0  15.8677802197802 0.507202499222613  15.8677802197802 1.13286848958333  L 15.8677802197802 15.8491796875  C 15.867513262148 16.474655492208  15.3639954264996 16.9815612557053  14.742967032967 17  L 1.25654945054945 17  C 0.635529639221637 16.9815490345352  0.132025195583871 16.4746468486613  0.131758241758242 15.8491796875  L 0.131758241758242 1.13286848958333  C 0.131758241639658 0.507211143538587  0.635340864032785 1.2224884152053E-05  1.25654945054945 0  L 14.7434505494506 0  Z M 11.934967032967 6.79196484375  L 4.06646153846154 6.79196484375  C 4.06583150238915 6.79196591182605  4.06520146553519 6.79196644586436  4.0645714285703 6.79196644586436  C 3.44439813795262 6.79196644586436  2.94164835164723 6.28561623791225  2.94164835164723 5.66100160211436  L 2.94164835164835 1.13238151041667  L 1.25654945054945 1.13238151041667  L 1.25654945054945 15.8492018229167  L 14.7457802197802 15.8492018229167  L 14.7457802197802 1.13286848958333  L 13.0597802197802 1.13286848958333  L 13.0597802197802 5.65911848958333  C 13.0597680818216 6.28477583550865  12.5561756196023 6.79196484386943  11.934967032967 6.79196484375  Z M 4.06646153846154 1.13238151041667  L 4.06646153846154 5.661  L 11.9344835164835 5.661  L 11.9344835164835 1.13238151041667  L 4.06646153846154 1.13238151041667  Z M 4.06646153846154 10.18771484375  L 11.9326153846154 10.18771484375  C 11.9405044824328 10.1873795663119  11.9483997227803 10.187211871682  11.9562958409666 10.187211871682  C 12.2665099366024 10.187211871682  12.5179881486589 10.4404910344759  12.5179881486589 10.752926715432  C 12.5179881486589 11.065362396388  12.2665099366024 11.318641559182  11.9562958409666 11.318641559182  C 11.9490230088786 11.318641559182  11.9417508627164 11.3184992938772  11.9344835164835 11.31821484375  L 4.06646153846154 11.31821484375  C 3.75650234347958 11.31821484375  3.50523076923077 11.0651437985919  3.50523076923077 10.75296484375  C 3.50523076923077 10.4407858889081  3.75650234347958 10.18771484375  4.06646153846154 10.18771484375  Z " fill-rule="nonzero" fill="#333333" stroke="none" transform="matrix(1 0 0 1 1008 66 )" />
  </g>
</svg>