<?xml version="1.0" encoding="utf-8"?>
<svg version="1.1" xmlns:xlink="http://www.w3.org/1999/xlink" width="19px" height="21px" xmlns="http://www.w3.org/2000/svg">
  <g transform="matrix(1 0 0 1 -996 -489 )">
    <path d="M 14.83333334375 5.29069766424419  L 14.83333334375 8  L 4.16666665625 8  L 4.16666665625 5.29069766424419  L 14.83333334375 5.29069766424419  Z M 14.83333334375 9.19767440843023  L 14.83333334375 13.1046511526163  L 14.83333334375 15.7093023357558  L 12.16666665625 15.7093023357558  L 12.16666665625 9.19767440843023  L 14.83333334375 9.19767440843023  Z M 0.16666665625 21  L 0.16666665625 0  L 18.83333334375 0  L 18.83333334375 21  L 0.16666665625 21  Z M 16 3  L 3 3  L 3 18  L 16 18  L 16 3  Z M 4.16666665625 11.8023255915698  L 4.16666665625 9.19767440843023  L 6.83333334375 9.19767440843023  L 6.83333334375 11.8023255915698  L 4.16666665625 11.8023255915698  Z M 8.16666665625 11.8023255915698  L 8.16666665625 9.19767440843023  L 10.83333334375 9.19767440843023  L 10.83333334375 11.8023255915698  L 8.16666665625 11.8023255915698  Z M 4.16666665625 15.7093023357558  L 4.16666665625 13.1046511526163  L 6.83333334375 13.1046511526163  L 6.83333334375 15.7093023357558  L 4.16666665625 15.7093023357558  Z M 8.16666665625 15.7093023357558  L 8.16666665625 13.1046511526163  L 10.83333334375 13.1046511526163  L 10.83333334375 15.7093023357558  L 8.16666665625 15.7093023357558  Z M 0.16666665625 3  L 0.16666665625 0  L 18.83333334375 0  L 18.83333334375 3  L 0.16666665625 3  Z " fill-rule="nonzero" fill="#8a8a8a" stroke="none" transform="matrix(1 0 0 1 996 489 )" />
  </g>
</svg>