<?xml version="1.0" encoding="utf-8"?>
<svg version="1.1" xmlns:xlink="http://www.w3.org/1999/xlink" width="17px" height="16px" xmlns="http://www.w3.org/2000/svg">
  <g transform="matrix(1 0 0 1 -1136 -492 )">
    <path d="M 16.4505278703224 15.9251504761905  L 16.4505278703224 16  L 0.421808410638643 16  L 0.421808410638643 15.9251504761905  C 0.188850058092554 15.9251504761905  0 15.7417215255612  0 15.5154504479695  C 0 15.2891793703778  0.188850058092556 15.1057504197486  0.421808410638643 15.1057504197486  C 0.421808410638643 15.1057504197486  0.421808410638643 15.1057504197486  0.421808410638643 15  L 16.4505278703224 15  C 16.4505278703224 15.1057504197486  16.4505278703224 15.1057504197486  16.4505278703224 15.1057504197486  C 16.6834862228685 15.1057504197486  16.872336280961 15.2891793703778  16.872336280961 15.5154504479695  C 16.872336280961 15.7417215255612  16.6834862228685 15.9251504761905  16.4505278703224 15.9251504761905  Z M 15.7562312373835 5.5892382593219  L 10.1234017669701 13.7947103544076  L 9.78595504488519 14.2863503789105  L 4.21808408228898 14.2863503789105  L 1.31941669973833 11.8674814371352  L 0.590531771681107 11.3365102006857  L 1.09670187087347 10.6809901680152  L 8.08100546902042 0.13531153944381  L 8.65972660510725 0.00912392191999999  L 15.5225493685239 4.45354979523048  L 16.252277916278 4.92634361660952  L 15.7562312373835 5.5892382593219  Z M 15.0543420432375 5.13447123821714  L 8.5593361985397 0.930129588419048  L 1.77665701715979 11.1726301925181  L 4.21808408228898 13.4874353312914  L 4.21808408228898 13.4669503224686  L 9.33546366897401 13.4669503224686  L 15.0543420432375 5.13447123821714  Z " fill-rule="nonzero" fill="#707070" stroke="none" transform="matrix(1 0 0 1 1136 492 )" />
  </g>
</svg>