<?xml version="1.0" encoding="utf-8"?>
<svg version="1.1" xmlns:xlink="http://www.w3.org/1999/xlink" width="14px" height="17px" xmlns="http://www.w3.org/2000/svg">
  <g transform="matrix(1 0 0 1 -1135 -381 )">
    <path d="M 8.79405882352941 17  L 8.82178431372549 17  C 8.70500509045218 16.9998774407727  8.5902793733065 16.9702760158333  8.48894117647059 16.9141201171875  L 4.79438235294118 14.4341787109375  C 4.61277997831713 14.3114855568706  4.50334307132305 14.1116836930373  4.50036519607843 13.8973837890625  L 4.50036519607843 6.092541015625  L 0.0347083333333333 0.692484375  L 0.178946078431373 0.332828125  C 0.28185659870313 0.127486230817221  0.49784214309449 -0.00208765913915105  0.733678921568627 0  L 13.6202843137255 0  L 13.9697696078431 0.638794921875  L 13.7423210784314 0.9555029296875  L 9.46528676470589 6.0925244140625  L 9.46528676470589 16.3504970703125  C 9.46528676470589 16.7092076333493  9.1647677791015 17  8.79405882352942 17  Z M 5.58210539215686 5.71678125  L 5.58210539215686 13.677296875  L 8.35580392156863 15.566787109375  L 8.35580392156863 5.71678125  L 12.2389852941176 1  L 1.77105147058824 1  L 5.58210539215686 5.71678125  Z " fill-rule="nonzero" fill="#8a8a8a" stroke="none" transform="matrix(1 0 0 1 1135 381 )" />
  </g>
</svg>