<?xml version="1.0" encoding="utf-8"?>
<svg version="1.1" xmlns:xlink="http://www.w3.org/1999/xlink" width="6px" height="7px" xmlns="http://www.w3.org/2000/svg">
  <g transform="matrix(1 0 0 1 -1146 -388 )">
    <path d="M 0.0483109756097575 0.599569444444445  C 0.0483109756097575 0.250293209876543  0.245469512195124 0.0756550925925923  0.639786585365854 0.0756550925925923  L 5.3715 0.0756550925925923  C 5.76580487804878 0.0756550925925923  5.96295731707317 0.250293209876543  5.96295731707317 0.599569444444444  C 5.96295731707317 0.948856481481482  5.76580487804878 1.1235  5.3715 1.1235  L 0.639786585365854 1.1235  C 0.245469512195124 1.1235  0.0483109756097575 0.948856481481482  0.0483109756097575 0.599569444444445  Z M 0.0483109756097575 3.48113888888889  C 0.0483109756097575 3.13186265432099  0.245469512195124 2.95722453703704  0.639786585365854 2.95722453703704  L 5.3715 2.95722453703704  C 5.76580487804878 2.95722453703704  5.96295731707317 3.13186265432099  5.96295731707317 3.48113888888889  C 5.96295731707317 3.83041512345679  5.76580487804878 4.00505324074074  5.3715 4.00505324074074  L 0.639786585365854 4.00505324074074  C 0.245469512195124 4.00505324074074  0.0483109756097575 3.83041512345679  0.0483109756097575 3.48113888888889  Z M 0.0483109756097575 6.36270833333333  C 0.0483109756097575 6.0134212962963  0.245469512195124 5.83877777777778  0.639786585365854 5.83877777777778  L 5.3715 5.83877777777778  C 5.76580487804878 5.83877777777778  5.96295731707317 6.0134212962963  5.96295731707317 6.36270833333333  C 5.96295731707317 6.71198456790124  5.76580487804878 6.88662268518519  5.3715 6.88662268518519  L 0.639786585365854 6.88662268518519  C 0.245469512195124 6.88662268518519  0.0483109756097575 6.71198456790124  0.0483109756097575 6.36270833333333  Z " fill-rule="nonzero" fill="#8a8a8a" stroke="none" transform="matrix(1 0 0 1 1146 388 )" />
  </g>
</svg>