<?xml version="1.0" encoding="utf-8"?>
<svg version="1.1" xmlns:xlink="http://www.w3.org/1999/xlink" width="10px" height="6px" xmlns="http://www.w3.org/2000/svg">
  <g transform="matrix(1 0 0 1 -11 -13 )">
    <path d="M 4.270263671875 5.30138346354164  C 4.4672941249969 5.49726759772  4.73395856231855 5.60703083465398  5.01179199218751 5.60660807291669  C 5.28870676502606 5.60712655464278  5.5545215813089 5.49778908454635  5.75092773437501 5.30257975260412  L 9.80327148437499 1.24886881510417  C 9.91556437927346 1.13657592020564  9.97864987073865 0.98427407112149  9.97864987073865 0.825467936197924  C 9.97864987073865 0.494771279474435  9.71056726219217 0.226688670928013  9.37987060546874 0.226688670928013  C 9.22106447054517 0.226688670928013  9.06876262146102 0.289774162393201  8.95646972656249 0.402067057291617  L 5.01059570312503 4.34811197916667  L 1.06455078124998 0.402237955729106  C 0.952257886351504 0.289945060830689  0.79995603726735 0.226859569365558  0.641149902343727 0.226859569365558  C 0.310453245620295 0.226859569365558  0.042370637073873 0.49494217791198  0.042370637073873 0.825638834635413  C 0.042370637073873 0.984444969558979  0.105456128539003 1.13674681864313  0.217749023437477 1.24903971354166  L 4.270263671875 5.30138346354164  Z " fill-rule="nonzero" fill="#343437" stroke="none" transform="matrix(1 0 0 1 11 13 )" />
  </g>
</svg>