<?xml version="1.0" encoding="utf-8"?>
<svg version="1.1" xmlns:xlink="http://www.w3.org/1999/xlink" width="10px" height="6px" xmlns="http://www.w3.org/2000/svg">
  <g transform="matrix(1 0 0 1 -11 -13 )">
    <path d="M 5.729736328125 5.30138346354164  C 5.5327058750031 5.49726759772  5.26604143768145 5.60703083465398  4.98820800781249 5.60660807291669  C 4.71129323497394 5.60712655464278  4.4454784186911 5.49778908454635  4.24907226562499 5.30257975260412  L 0.196728515625011 1.24886881510417  C 0.0844356207265373 1.13657592020564  0.0213501292613505 0.98427407112149  0.0213501292613505 0.825467936197924  C 0.0213501292613505 0.494771279474435  0.289432737807829 0.226688670928013  0.620129394531261 0.226688670928013  C 0.778935529454827 0.226688670928013  0.93123737853898 0.289774162393201  1.04353027343751 0.402067057291617  L 4.98940429687497 4.34811197916667  L 8.93544921875002 0.402237955729106  C 9.0477421136485 0.289945060830689  9.20004396273265 0.226859569365558  9.35885009765627 0.226859569365558  C 9.68954675437971 0.226859569365558  9.95762936292613 0.49494217791198  9.95762936292613 0.825638834635413  C 9.95762936292613 0.984444969558979  9.894543871461 1.13674681864313  9.78225097656252 1.24903971354166  L 5.729736328125 5.30138346354164  Z " fill-rule="nonzero" fill="#343437" stroke="none" transform="matrix(1 0 0 1 11 13 )" />
  </g>
</svg>