<?xml version="1.0" encoding="utf-8"?>
<svg version="1.1" xmlns:xlink="http://www.w3.org/1999/xlink" width="776px" height="185px" xmlns="http://www.w3.org/2000/svg">
  <g transform="matrix(1 0 0 1 1 0 )">
    <path d="M 0 5  A 4 4 0 0 1 4 1 L 770 1  A 4 4 0 0 1 774 5 L 774 180  A 4 4 0 0 1 770 184 L 4 184  A 4 4 0 0 1 0 180 L 0 5  Z " fill-rule="nonzero" fill="#ffffff" stroke="none" fill-opacity="0" />
    <path d="M -0.5 5  A 4.5 4.5 0 0 1 4 0.5 L 770 0.5  A 4.5 4.5 0 0 1 774.5 5 L 774.5 180  A 4.5 4.5 0 0 1 770 184.5 L 4 184.5  A 4.5 4.5 0 0 1 -0.5 180 L -0.5 5  Z " stroke-width="1" stroke-dasharray="17,4,5,4" stroke="#797979" fill="none" stroke-dashoffset="0.5" />
  </g>
</svg>